<mxfile host="app.diagrams.net" modified="2021-04-27T13:49:25.418Z" agent="5.0 (Windows NT 10.0; Win64; x64) AppleWebKit/537.36 (KHTML, like Gecko) Chrome/90.0.4430.93 Safari/537.36" etag="RLpdmUJ_ZUx99OSGdd46" version="14.6.6" type="github">
  <diagram id="1xsWs5C1Qi4gCplDLGIl" name="Page-1">
    <mxGraphModel dx="1038" dy="548" grid="1" gridSize="10" guides="1" tooltips="1" connect="1" arrows="1" fold="1" page="1" pageScale="1" pageWidth="827" pageHeight="1169" math="0" shadow="0">
      <root>
        <mxCell id="0" />
        <mxCell id="1" parent="0" />
        <mxCell id="r5rehumyS8rX1PXewX2W-1" value="&lt;p style=&quot;margin: 0px ; margin-top: 4px ; margin-left: 5px ; text-align: left&quot;&gt;&lt;b&gt;uc&lt;/b&gt;&amp;nbsp;productos&lt;/p&gt;" style="html=1;shape=mxgraph.sysml.package;overflow=fill;labelX=95;align=left;spacingLeft=5;verticalAlign=top;spacingTop=-3;" parent="1" vertex="1">
          <mxGeometry x="896" y="80" width="690" height="400" as="geometry" />
        </mxCell>
        <mxCell id="r5rehumyS8rX1PXewX2W-2" value="Registro de productos" style="shape=rect;html=1;verticalAlign=top;fontStyle=1;whiteSpace=wrap;align=center;" parent="1" vertex="1">
          <mxGeometry x="1026" y="110" width="530" height="340" as="geometry" />
        </mxCell>
        <mxCell id="r5rehumyS8rX1PXewX2W-3" value="Administrador&lt;br&gt;Restaurante" style="shape=umlActor;html=1;verticalLabelPosition=bottom;verticalAlign=top;align=center;" parent="1" vertex="1">
          <mxGeometry x="946" y="240" width="30" height="60" as="geometry" />
        </mxCell>
        <mxCell id="r5rehumyS8rX1PXewX2W-4" value="Registrar Producto" style="shape=ellipse;html=1;strokeWidth=3;fontStyle=1;whiteSpace=wrap;align=center;perimeter=ellipsePerimeter;" parent="1" vertex="1">
          <mxGeometry x="1046" y="320" width="120" height="60" as="geometry" />
        </mxCell>
        <mxCell id="r5rehumyS8rX1PXewX2W-5" value="" style="edgeStyle=none;html=1;endArrow=none;verticalAlign=bottom;exitX=0;exitY=0;exitDx=0;exitDy=0;entryX=0.5;entryY=0.5;entryDx=0;entryDy=0;entryPerimeter=0;" parent="1" source="r5rehumyS8rX1PXewX2W-4" target="r5rehumyS8rX1PXewX2W-3" edge="1">
          <mxGeometry width="160" relative="1" as="geometry">
            <mxPoint x="1136" y="300" as="sourcePoint" />
            <mxPoint x="1296" y="300" as="targetPoint" />
          </mxGeometry>
        </mxCell>
        <mxCell id="r5rehumyS8rX1PXewX2W-6" value="Establecer Detalles" style="shape=ellipse;html=1;strokeWidth=3;fontStyle=1;whiteSpace=wrap;align=center;perimeter=ellipsePerimeter;" parent="1" vertex="1">
          <mxGeometry x="1186" y="240" width="120" height="60" as="geometry" />
        </mxCell>
        <mxCell id="r5rehumyS8rX1PXewX2W-7" value="Ingresar Nombre" style="shape=ellipse;html=1;strokeWidth=3;fontStyle=1;whiteSpace=wrap;align=center;perimeter=ellipsePerimeter;" parent="1" vertex="1">
          <mxGeometry x="1046" y="140" width="120" height="60" as="geometry" />
        </mxCell>
        <mxCell id="r5rehumyS8rX1PXewX2W-8" value="Ingresar Precio" style="shape=ellipse;html=1;strokeWidth=3;fontStyle=1;whiteSpace=wrap;align=center;perimeter=ellipsePerimeter;" parent="1" vertex="1">
          <mxGeometry x="1340" y="140" width="120" height="60" as="geometry" />
        </mxCell>
        <mxCell id="r5rehumyS8rX1PXewX2W-9" value="Ingresar&lt;br&gt;Descripción" style="shape=ellipse;html=1;strokeWidth=3;fontStyle=1;whiteSpace=wrap;align=center;perimeter=ellipsePerimeter;" parent="1" vertex="1">
          <mxGeometry x="1196" y="140" width="120" height="60" as="geometry" />
        </mxCell>
        <mxCell id="r5rehumyS8rX1PXewX2W-13" value="&amp;lt;&amp;lt;include&amp;gt;&amp;gt;" style="edgeStyle=none;html=1;endArrow=open;verticalAlign=bottom;dashed=1;labelBackgroundColor=none;entryX=0.5;entryY=1;entryDx=0;entryDy=0;exitX=0;exitY=0;exitDx=0;exitDy=0;" parent="1" source="r5rehumyS8rX1PXewX2W-6" target="r5rehumyS8rX1PXewX2W-7" edge="1">
          <mxGeometry x="-0.0659" y="4" width="160" relative="1" as="geometry">
            <mxPoint x="1136" y="300" as="sourcePoint" />
            <mxPoint x="1296" y="300" as="targetPoint" />
            <mxPoint as="offset" />
          </mxGeometry>
        </mxCell>
        <mxCell id="r5rehumyS8rX1PXewX2W-14" value="&amp;lt;&amp;lt;include&amp;gt;&amp;gt;" style="edgeStyle=none;html=1;endArrow=open;verticalAlign=bottom;dashed=1;labelBackgroundColor=none;entryX=0.5;entryY=1;entryDx=0;entryDy=0;exitX=0.5;exitY=0;exitDx=0;exitDy=0;" parent="1" source="r5rehumyS8rX1PXewX2W-6" target="r5rehumyS8rX1PXewX2W-9" edge="1">
          <mxGeometry x="-0.5" width="160" relative="1" as="geometry">
            <mxPoint x="1213.573593128807" y="258.7867965644035" as="sourcePoint" />
            <mxPoint x="1116" y="210" as="targetPoint" />
            <mxPoint as="offset" />
          </mxGeometry>
        </mxCell>
        <mxCell id="r5rehumyS8rX1PXewX2W-15" value="&amp;lt;&amp;lt;include&amp;gt;&amp;gt;" style="edgeStyle=none;html=1;endArrow=open;verticalAlign=bottom;dashed=1;labelBackgroundColor=none;exitX=1;exitY=0;exitDx=0;exitDy=0;entryX=0;entryY=1;entryDx=0;entryDy=0;" parent="1" source="r5rehumyS8rX1PXewX2W-6" target="r5rehumyS8rX1PXewX2W-8" edge="1">
          <mxGeometry x="-0.0659" y="-4" width="160" relative="1" as="geometry">
            <mxPoint x="1256" y="250" as="sourcePoint" />
            <mxPoint x="1256" y="210" as="targetPoint" />
            <mxPoint as="offset" />
          </mxGeometry>
        </mxCell>
        <mxCell id="r5rehumyS8rX1PXewX2W-16" value="&amp;lt;&amp;lt;extend&amp;gt;&amp;gt;" style="edgeStyle=none;html=1;startArrow=open;endArrow=none;startSize=12;verticalAlign=bottom;dashed=1;labelBackgroundColor=none;exitX=1;exitY=0;exitDx=0;exitDy=0;entryX=0;entryY=1;entryDx=0;entryDy=0;" parent="1" source="r5rehumyS8rX1PXewX2W-4" target="r5rehumyS8rX1PXewX2W-6" edge="1">
          <mxGeometry x="0.035" y="-7" width="160" relative="1" as="geometry">
            <mxPoint x="1136" y="300" as="sourcePoint" />
            <mxPoint x="1296" y="300" as="targetPoint" />
            <mxPoint as="offset" />
          </mxGeometry>
        </mxCell>
        <mxCell id="r5rehumyS8rX1PXewX2W-17" value="Seleccionar Tipo" style="shape=ellipse;html=1;strokeWidth=3;fontStyle=1;whiteSpace=wrap;align=center;perimeter=ellipsePerimeter;" parent="1" vertex="1">
          <mxGeometry x="1256" y="320" width="120" height="60" as="geometry" />
        </mxCell>
        <mxCell id="r5rehumyS8rX1PXewX2W-20" value="Tipos de productos:&#xa;Bebida, Platillo, Postre, etc&#xa;También: Ejecutivo, Especial, etc" style="shape=note;size=15;spacingLeft=5;align=left;whiteSpace=wrap;" parent="1" vertex="1">
          <mxGeometry x="1350" y="390" width="190" height="50" as="geometry" />
        </mxCell>
        <mxCell id="r5rehumyS8rX1PXewX2W-22" value="" style="edgeStyle=none;html=1;endArrow=none;rounded=0;labelBackgroundColor=none;dashed=1;exitX=0.5;exitY=0;entryX=1;entryY=0.5;entryDx=0;entryDy=0;exitDx=0;exitDy=0;exitPerimeter=0;" parent="1" source="r5rehumyS8rX1PXewX2W-20" target="r5rehumyS8rX1PXewX2W-17" edge="1">
          <mxGeometry relative="1" as="geometry">
            <mxPoint x="1376" y="440" as="targetPoint" />
          </mxGeometry>
        </mxCell>
        <mxCell id="r5rehumyS8rX1PXewX2W-27" value="&amp;lt;&amp;lt;extend&amp;gt;&amp;gt;" style="edgeStyle=none;html=1;startArrow=open;endArrow=none;startSize=12;verticalAlign=bottom;dashed=1;labelBackgroundColor=none;exitX=1;exitY=0.5;exitDx=0;exitDy=0;entryX=0;entryY=0.5;entryDx=0;entryDy=0;" parent="1" source="r5rehumyS8rX1PXewX2W-4" target="r5rehumyS8rX1PXewX2W-17" edge="1">
          <mxGeometry x="0.25" width="160" relative="1" as="geometry">
            <mxPoint x="1136" y="300" as="sourcePoint" />
            <mxPoint x="1296" y="300" as="targetPoint" />
            <mxPoint as="offset" />
          </mxGeometry>
        </mxCell>
        <mxCell id="-RLH_IuoiYfBiZFLVVhZ-1" value="&lt;p style=&quot;margin: 0px ; margin-top: 4px ; margin-left: 5px ; text-align: left&quot;&gt;&lt;b&gt;uc&lt;/b&gt;&amp;nbsp;pedidos&lt;/p&gt;" style="html=1;shape=mxgraph.sysml.package;overflow=fill;labelX=95;align=left;spacingLeft=5;verticalAlign=top;spacingTop=-3;" parent="1" vertex="1">
          <mxGeometry x="1723" y="80" width="690" height="1200" as="geometry" />
        </mxCell>
        <mxCell id="-RLH_IuoiYfBiZFLVVhZ-2" value="Proceso de domicilios" style="shape=rect;html=1;verticalAlign=top;fontStyle=1;whiteSpace=wrap;align=center;" parent="1" vertex="1">
          <mxGeometry x="1851" y="540" width="530" height="340" as="geometry" />
        </mxCell>
        <mxCell id="-RLH_IuoiYfBiZFLVVhZ-3" value="Encargado&lt;br&gt;Pedidos" style="shape=umlActor;html=1;verticalLabelPosition=bottom;verticalAlign=top;align=center;" parent="1" vertex="1">
          <mxGeometry x="1771" y="660" width="30" height="60" as="geometry" />
        </mxCell>
        <mxCell id="-RLH_IuoiYfBiZFLVVhZ-4" value="Despachar Domicilio&amp;nbsp;" style="shape=ellipse;html=1;strokeWidth=3;fontStyle=1;whiteSpace=wrap;align=center;perimeter=ellipsePerimeter;" parent="1" vertex="1">
          <mxGeometry x="1871" y="750" width="120" height="60" as="geometry" />
        </mxCell>
        <mxCell id="-RLH_IuoiYfBiZFLVVhZ-5" value="" style="edgeStyle=none;html=1;endArrow=none;verticalAlign=bottom;exitX=0;exitY=0;exitDx=0;exitDy=0;entryX=0.5;entryY=0.5;entryDx=0;entryDy=0;entryPerimeter=0;" parent="1" source="-RLH_IuoiYfBiZFLVVhZ-4" target="-RLH_IuoiYfBiZFLVVhZ-3" edge="1">
          <mxGeometry width="160" relative="1" as="geometry">
            <mxPoint x="1961" y="730" as="sourcePoint" />
            <mxPoint x="2121" y="730" as="targetPoint" />
          </mxGeometry>
        </mxCell>
        <mxCell id="-RLH_IuoiYfBiZFLVVhZ-6" value="Consultar&lt;br&gt;Procedencia" style="shape=ellipse;html=1;strokeWidth=3;fontStyle=1;whiteSpace=wrap;align=center;perimeter=ellipsePerimeter;" parent="1" vertex="1">
          <mxGeometry x="2196" y="670" width="120" height="60" as="geometry" />
        </mxCell>
        <mxCell id="-RLH_IuoiYfBiZFLVVhZ-7" value="Consultar &lt;br&gt;Nombre Cliente" style="shape=ellipse;html=1;strokeWidth=3;fontStyle=1;whiteSpace=wrap;align=center;perimeter=ellipsePerimeter;" parent="1" vertex="1">
          <mxGeometry x="2111" y="580" width="120" height="60" as="geometry" />
        </mxCell>
        <mxCell id="-RLH_IuoiYfBiZFLVVhZ-9" value="Consultar&lt;br&gt;Dirección" style="shape=ellipse;html=1;strokeWidth=3;fontStyle=1;whiteSpace=wrap;align=center;perimeter=ellipsePerimeter;" parent="1" vertex="1">
          <mxGeometry x="2251" y="580" width="120" height="60" as="geometry" />
        </mxCell>
        <mxCell id="-RLH_IuoiYfBiZFLVVhZ-10" value="&amp;lt;&amp;lt;include&amp;gt;&amp;gt;" style="edgeStyle=none;html=1;endArrow=open;verticalAlign=bottom;dashed=1;labelBackgroundColor=none;entryX=0.5;entryY=1;entryDx=0;entryDy=0;exitX=0;exitY=0;exitDx=0;exitDy=0;" parent="1" source="-RLH_IuoiYfBiZFLVVhZ-6" target="-RLH_IuoiYfBiZFLVVhZ-7" edge="1">
          <mxGeometry x="-0.0659" y="4" width="160" relative="1" as="geometry">
            <mxPoint x="1961" y="730" as="sourcePoint" />
            <mxPoint x="2121" y="730" as="targetPoint" />
            <mxPoint as="offset" />
          </mxGeometry>
        </mxCell>
        <mxCell id="-RLH_IuoiYfBiZFLVVhZ-11" value="&amp;lt;&amp;lt;include&amp;gt;&amp;gt;" style="edgeStyle=none;html=1;endArrow=open;verticalAlign=bottom;dashed=1;labelBackgroundColor=none;entryX=0.5;entryY=1;entryDx=0;entryDy=0;exitX=0.5;exitY=0;exitDx=0;exitDy=0;" parent="1" source="-RLH_IuoiYfBiZFLVVhZ-6" target="-RLH_IuoiYfBiZFLVVhZ-9" edge="1">
          <mxGeometry x="-0.2324" y="-7" width="160" relative="1" as="geometry">
            <mxPoint x="2038.5735931288073" y="688.7867965644035" as="sourcePoint" />
            <mxPoint x="1941" y="640" as="targetPoint" />
            <mxPoint as="offset" />
          </mxGeometry>
        </mxCell>
        <mxCell id="-RLH_IuoiYfBiZFLVVhZ-13" value="&amp;lt;&amp;lt;extend&amp;gt;&amp;gt;" style="edgeStyle=none;html=1;startArrow=open;endArrow=none;startSize=12;verticalAlign=bottom;dashed=1;labelBackgroundColor=none;exitX=1;exitY=0.5;exitDx=0;exitDy=0;entryX=0;entryY=0.5;entryDx=0;entryDy=0;" parent="1" source="-RLH_IuoiYfBiZFLVVhZ-18" target="-RLH_IuoiYfBiZFLVVhZ-6" edge="1">
          <mxGeometry x="0.0551" y="-19" width="160" relative="1" as="geometry">
            <mxPoint x="1961" y="730" as="sourcePoint" />
            <mxPoint x="2121" y="730" as="targetPoint" />
            <mxPoint as="offset" />
          </mxGeometry>
        </mxCell>
        <mxCell id="-RLH_IuoiYfBiZFLVVhZ-14" value="Elegir Repartidor" style="shape=ellipse;html=1;strokeWidth=3;fontStyle=1;whiteSpace=wrap;align=center;perimeter=ellipsePerimeter;" parent="1" vertex="1">
          <mxGeometry x="2121" y="750" width="120" height="60" as="geometry" />
        </mxCell>
        <mxCell id="-RLH_IuoiYfBiZFLVVhZ-15" value="Repartidores de &#xa;acuerdo a cada restaurante" style="shape=note;size=15;spacingLeft=5;align=left;whiteSpace=wrap;" parent="1" vertex="1">
          <mxGeometry x="2261" y="820" width="110" height="50" as="geometry" />
        </mxCell>
        <mxCell id="-RLH_IuoiYfBiZFLVVhZ-16" value="" style="edgeStyle=none;html=1;endArrow=none;rounded=0;labelBackgroundColor=none;dashed=1;exitX=0;exitY=0;entryX=1;entryY=0.5;entryDx=0;entryDy=0;exitDx=0;exitDy=0;exitPerimeter=0;" parent="1" source="-RLH_IuoiYfBiZFLVVhZ-15" target="-RLH_IuoiYfBiZFLVVhZ-14" edge="1">
          <mxGeometry relative="1" as="geometry">
            <mxPoint x="2201" y="870" as="targetPoint" />
          </mxGeometry>
        </mxCell>
        <mxCell id="-RLH_IuoiYfBiZFLVVhZ-17" value="&amp;lt;&amp;lt;extend&amp;gt;&amp;gt;" style="edgeStyle=none;html=1;startArrow=open;endArrow=none;startSize=12;verticalAlign=bottom;dashed=1;labelBackgroundColor=none;exitX=1;exitY=0.5;exitDx=0;exitDy=0;entryX=0;entryY=0.5;entryDx=0;entryDy=0;" parent="1" source="-RLH_IuoiYfBiZFLVVhZ-4" target="-RLH_IuoiYfBiZFLVVhZ-14" edge="1">
          <mxGeometry x="0.1111" y="-20" width="160" relative="1" as="geometry">
            <mxPoint x="1961" y="730" as="sourcePoint" />
            <mxPoint x="2121" y="730" as="targetPoint" />
            <mxPoint x="1" as="offset" />
          </mxGeometry>
        </mxCell>
        <mxCell id="-RLH_IuoiYfBiZFLVVhZ-18" value="Detectar Domicilio&amp;nbsp;" style="shape=ellipse;html=1;strokeWidth=3;fontStyle=1;whiteSpace=wrap;align=center;perimeter=ellipsePerimeter;" parent="1" vertex="1">
          <mxGeometry x="1991" y="670" width="120" height="60" as="geometry" />
        </mxCell>
        <mxCell id="-RLH_IuoiYfBiZFLVVhZ-20" value="&amp;lt;&amp;lt;extend&amp;gt;&amp;gt;" style="edgeStyle=none;html=1;startArrow=open;endArrow=none;startSize=12;verticalAlign=bottom;dashed=1;labelBackgroundColor=none;exitX=1;exitY=0;exitDx=0;exitDy=0;entryX=0;entryY=1;entryDx=0;entryDy=0;" parent="1" source="-RLH_IuoiYfBiZFLVVhZ-4" target="-RLH_IuoiYfBiZFLVVhZ-18" edge="1">
          <mxGeometry x="-0.0281" y="-14" width="160" relative="1" as="geometry">
            <mxPoint x="1861" y="680" as="sourcePoint" />
            <mxPoint x="2021" y="680" as="targetPoint" />
            <mxPoint as="offset" />
          </mxGeometry>
        </mxCell>
        <mxCell id="-RLH_IuoiYfBiZFLVVhZ-21" value="Consultar&lt;br&gt;Productos" style="shape=ellipse;html=1;strokeWidth=3;fontStyle=1;whiteSpace=wrap;align=center;perimeter=ellipsePerimeter;" parent="1" vertex="1">
          <mxGeometry x="1871" y="580" width="120" height="60" as="geometry" />
        </mxCell>
        <mxCell id="-RLH_IuoiYfBiZFLVVhZ-22" value="&amp;lt;&amp;lt;extend&amp;gt;&amp;gt;" style="edgeStyle=none;html=1;startArrow=open;endArrow=none;startSize=12;verticalAlign=bottom;dashed=1;labelBackgroundColor=none;entryX=1;entryY=1;entryDx=0;entryDy=0;exitX=0;exitY=0;exitDx=0;exitDy=0;" parent="1" source="-RLH_IuoiYfBiZFLVVhZ-18" target="-RLH_IuoiYfBiZFLVVhZ-21" edge="1">
          <mxGeometry x="-0.2899" y="7" width="160" relative="1" as="geometry">
            <mxPoint x="1951" y="680" as="sourcePoint" />
            <mxPoint x="2111" y="680" as="targetPoint" />
            <mxPoint y="-1" as="offset" />
          </mxGeometry>
        </mxCell>
        <mxCell id="-RLH_IuoiYfBiZFLVVhZ-43" value="&lt;p style=&quot;margin: 0px ; margin-top: 4px ; margin-left: 5px ; text-align: left&quot;&gt;&lt;b&gt;uc&lt;/b&gt;&amp;nbsp;cuentas&lt;/p&gt;" style="html=1;shape=mxgraph.sysml.package;overflow=fill;labelX=95;align=left;spacingLeft=5;verticalAlign=top;spacingTop=-3;" parent="1" vertex="1">
          <mxGeometry x="69" y="80" width="690" height="1260" as="geometry" />
        </mxCell>
        <mxCell id="-RLH_IuoiYfBiZFLVVhZ-44" value="Registro en la aplicación" style="shape=rect;html=1;verticalAlign=top;fontStyle=1;whiteSpace=wrap;align=center;" parent="1" vertex="1">
          <mxGeometry x="200" y="110" width="530" height="340" as="geometry" />
        </mxCell>
        <mxCell id="-RLH_IuoiYfBiZFLVVhZ-45" value="Cliente" style="shape=umlActor;html=1;verticalLabelPosition=bottom;verticalAlign=top;align=center;" parent="1" vertex="1">
          <mxGeometry x="120" y="240" width="30" height="60" as="geometry" />
        </mxCell>
        <mxCell id="-RLH_IuoiYfBiZFLVVhZ-46" value="Registrar Cuenta" style="shape=ellipse;html=1;strokeWidth=3;fontStyle=1;whiteSpace=wrap;align=center;perimeter=ellipsePerimeter;" parent="1" vertex="1">
          <mxGeometry x="220" y="350" width="120" height="60" as="geometry" />
        </mxCell>
        <mxCell id="-RLH_IuoiYfBiZFLVVhZ-47" value="" style="edgeStyle=none;html=1;endArrow=none;verticalAlign=bottom;exitX=0;exitY=0;exitDx=0;exitDy=0;entryX=0.5;entryY=0.5;entryDx=0;entryDy=0;entryPerimeter=0;" parent="1" source="-RLH_IuoiYfBiZFLVVhZ-46" target="-RLH_IuoiYfBiZFLVVhZ-45" edge="1">
          <mxGeometry width="160" relative="1" as="geometry">
            <mxPoint x="310" y="300" as="sourcePoint" />
            <mxPoint x="470" y="300" as="targetPoint" />
          </mxGeometry>
        </mxCell>
        <mxCell id="-RLH_IuoiYfBiZFLVVhZ-48" value="Ingresar Datos" style="shape=ellipse;html=1;strokeWidth=3;fontStyle=1;whiteSpace=wrap;align=center;perimeter=ellipsePerimeter;" parent="1" vertex="1">
          <mxGeometry x="390" y="280" width="120" height="60" as="geometry" />
        </mxCell>
        <mxCell id="-RLH_IuoiYfBiZFLVVhZ-49" value="Ingresar &lt;br&gt;Nombres-Apellidos" style="shape=ellipse;html=1;strokeWidth=3;fontStyle=1;whiteSpace=wrap;align=center;perimeter=ellipsePerimeter;" parent="1" vertex="1">
          <mxGeometry x="240" y="170" width="120" height="60" as="geometry" />
        </mxCell>
        <mxCell id="-RLH_IuoiYfBiZFLVVhZ-50" value="Ingresar&lt;br&gt;Contraseña" style="shape=ellipse;html=1;strokeWidth=3;fontStyle=1;whiteSpace=wrap;align=center;perimeter=ellipsePerimeter;" parent="1" vertex="1">
          <mxGeometry x="540" y="170" width="120" height="60" as="geometry" />
        </mxCell>
        <mxCell id="-RLH_IuoiYfBiZFLVVhZ-51" value="Ingresar Correo" style="shape=ellipse;html=1;strokeWidth=3;fontStyle=1;whiteSpace=wrap;align=center;perimeter=ellipsePerimeter;" parent="1" vertex="1">
          <mxGeometry x="390" y="170" width="120" height="60" as="geometry" />
        </mxCell>
        <mxCell id="-RLH_IuoiYfBiZFLVVhZ-52" value="&amp;lt;&amp;lt;include&amp;gt;&amp;gt;" style="edgeStyle=none;html=1;endArrow=open;verticalAlign=bottom;dashed=1;labelBackgroundColor=none;entryX=0.5;entryY=1;entryDx=0;entryDy=0;exitX=0;exitY=0;exitDx=0;exitDy=0;" parent="1" source="-RLH_IuoiYfBiZFLVVhZ-48" target="-RLH_IuoiYfBiZFLVVhZ-49" edge="1">
          <mxGeometry x="-0.0659" y="4" width="160" relative="1" as="geometry">
            <mxPoint x="310" y="300" as="sourcePoint" />
            <mxPoint x="470" y="300" as="targetPoint" />
            <mxPoint as="offset" />
          </mxGeometry>
        </mxCell>
        <mxCell id="-RLH_IuoiYfBiZFLVVhZ-53" value="&amp;lt;&amp;lt;include&amp;gt;&amp;gt;" style="edgeStyle=none;html=1;endArrow=open;verticalAlign=bottom;dashed=1;labelBackgroundColor=none;entryX=0.5;entryY=1;entryDx=0;entryDy=0;exitX=0.5;exitY=0;exitDx=0;exitDy=0;" parent="1" source="-RLH_IuoiYfBiZFLVVhZ-48" target="-RLH_IuoiYfBiZFLVVhZ-51" edge="1">
          <mxGeometry x="-0.5" width="160" relative="1" as="geometry">
            <mxPoint x="387.57359312880703" y="258.7867965644035" as="sourcePoint" />
            <mxPoint x="290" y="210" as="targetPoint" />
            <mxPoint as="offset" />
          </mxGeometry>
        </mxCell>
        <mxCell id="-RLH_IuoiYfBiZFLVVhZ-54" value="&amp;lt;&amp;lt;include&amp;gt;&amp;gt;" style="edgeStyle=none;html=1;endArrow=open;verticalAlign=bottom;dashed=1;labelBackgroundColor=none;exitX=1;exitY=0;exitDx=0;exitDy=0;entryX=0.5;entryY=1;entryDx=0;entryDy=0;" parent="1" source="-RLH_IuoiYfBiZFLVVhZ-48" target="-RLH_IuoiYfBiZFLVVhZ-50" edge="1">
          <mxGeometry x="-0.0659" y="-4" width="160" relative="1" as="geometry">
            <mxPoint x="430" y="250" as="sourcePoint" />
            <mxPoint x="430" y="210" as="targetPoint" />
            <mxPoint as="offset" />
          </mxGeometry>
        </mxCell>
        <mxCell id="-RLH_IuoiYfBiZFLVVhZ-55" value="&amp;lt;&amp;lt;extend&amp;gt;&amp;gt;" style="edgeStyle=none;html=1;startArrow=open;endArrow=none;startSize=12;verticalAlign=bottom;dashed=1;labelBackgroundColor=none;exitX=1;exitY=0;exitDx=0;exitDy=0;entryX=0;entryY=1;entryDx=0;entryDy=0;" parent="1" source="-RLH_IuoiYfBiZFLVVhZ-46" target="-RLH_IuoiYfBiZFLVVhZ-48" edge="1">
          <mxGeometry x="0.035" y="-7" width="160" relative="1" as="geometry">
            <mxPoint x="310" y="300" as="sourcePoint" />
            <mxPoint x="470" y="300" as="targetPoint" />
            <mxPoint as="offset" />
          </mxGeometry>
        </mxCell>
        <mxCell id="-RLH_IuoiYfBiZFLVVhZ-60" value="Ingresar Teléfono" style="shape=ellipse;html=1;strokeWidth=3;fontStyle=1;whiteSpace=wrap;align=center;perimeter=ellipsePerimeter;" parent="1" vertex="1">
          <mxGeometry x="590" y="280" width="120" height="60" as="geometry" />
        </mxCell>
        <mxCell id="-RLH_IuoiYfBiZFLVVhZ-61" value="&amp;lt;&amp;lt;include&amp;gt;&amp;gt;" style="edgeStyle=none;html=1;endArrow=open;verticalAlign=bottom;dashed=1;labelBackgroundColor=none;exitX=1;exitY=0.5;exitDx=0;exitDy=0;entryX=0;entryY=0.5;entryDx=0;entryDy=0;" parent="1" source="-RLH_IuoiYfBiZFLVVhZ-48" target="-RLH_IuoiYfBiZFLVVhZ-60" edge="1">
          <mxGeometry x="-0.0659" y="-4" width="160" relative="1" as="geometry">
            <mxPoint x="519.996406871193" y="399.9967965644036" as="sourcePoint" />
            <mxPoint x="457.57" y="321.21" as="targetPoint" />
            <mxPoint as="offset" />
          </mxGeometry>
        </mxCell>
        <mxCell id="-RLH_IuoiYfBiZFLVVhZ-62" value="Registro en la aplicación" style="shape=rect;html=1;verticalAlign=top;fontStyle=1;whiteSpace=wrap;align=center;" parent="1" vertex="1">
          <mxGeometry x="200" y="480" width="530" height="460" as="geometry" />
        </mxCell>
        <mxCell id="-RLH_IuoiYfBiZFLVVhZ-63" value="Administrador&lt;br&gt;Restaurante" style="shape=umlActor;html=1;verticalLabelPosition=bottom;verticalAlign=top;align=center;" parent="1" vertex="1">
          <mxGeometry x="120" y="650" width="30" height="60" as="geometry" />
        </mxCell>
        <mxCell id="-RLH_IuoiYfBiZFLVVhZ-64" value="Registrarse Como&lt;br&gt;Restaurante" style="shape=ellipse;html=1;strokeWidth=3;fontStyle=1;whiteSpace=wrap;align=center;perimeter=ellipsePerimeter;" parent="1" vertex="1">
          <mxGeometry x="220" y="720" width="120" height="60" as="geometry" />
        </mxCell>
        <mxCell id="-RLH_IuoiYfBiZFLVVhZ-65" value="" style="edgeStyle=none;html=1;endArrow=none;verticalAlign=bottom;exitX=0;exitY=0;exitDx=0;exitDy=0;entryX=0.5;entryY=0.5;entryDx=0;entryDy=0;entryPerimeter=0;" parent="1" source="-RLH_IuoiYfBiZFLVVhZ-64" target="-RLH_IuoiYfBiZFLVVhZ-63" edge="1">
          <mxGeometry width="160" relative="1" as="geometry">
            <mxPoint x="310" y="670" as="sourcePoint" />
            <mxPoint x="470" y="670" as="targetPoint" />
          </mxGeometry>
        </mxCell>
        <mxCell id="-RLH_IuoiYfBiZFLVVhZ-66" value="Ingresar Datos" style="shape=ellipse;html=1;strokeWidth=3;fontStyle=1;whiteSpace=wrap;align=center;perimeter=ellipsePerimeter;" parent="1" vertex="1">
          <mxGeometry x="390" y="650" width="120" height="60" as="geometry" />
        </mxCell>
        <mxCell id="-RLH_IuoiYfBiZFLVVhZ-67" value="Obtener Información&lt;br&gt;Como Cliente" style="shape=ellipse;html=1;strokeWidth=3;fontStyle=1;whiteSpace=wrap;align=center;perimeter=ellipsePerimeter;" parent="1" vertex="1">
          <mxGeometry x="240" y="540" width="120" height="60" as="geometry" />
        </mxCell>
        <mxCell id="-RLH_IuoiYfBiZFLVVhZ-68" value="Ingresar Redes Sociales y / o&lt;br&gt;Página Web" style="shape=ellipse;html=1;strokeWidth=3;fontStyle=1;whiteSpace=wrap;align=center;perimeter=ellipsePerimeter;" parent="1" vertex="1">
          <mxGeometry x="540" y="540" width="120" height="60" as="geometry" />
        </mxCell>
        <mxCell id="-RLH_IuoiYfBiZFLVVhZ-70" value="&amp;lt;&amp;lt;include&amp;gt;&amp;gt;" style="edgeStyle=none;html=1;endArrow=open;verticalAlign=bottom;dashed=1;labelBackgroundColor=none;entryX=1;entryY=1;entryDx=0;entryDy=0;exitX=0;exitY=0;exitDx=0;exitDy=0;" parent="1" source="-RLH_IuoiYfBiZFLVVhZ-66" target="-RLH_IuoiYfBiZFLVVhZ-67" edge="1">
          <mxGeometry x="-0.0659" y="4" width="160" relative="1" as="geometry">
            <mxPoint x="310" y="670" as="sourcePoint" />
            <mxPoint x="470" y="670" as="targetPoint" />
            <mxPoint as="offset" />
          </mxGeometry>
        </mxCell>
        <mxCell id="-RLH_IuoiYfBiZFLVVhZ-71" value="&amp;lt;&amp;lt;include&amp;gt;&amp;gt;" style="edgeStyle=none;html=1;endArrow=open;verticalAlign=bottom;dashed=1;labelBackgroundColor=none;entryX=0.5;entryY=1;entryDx=0;entryDy=0;exitX=0.5;exitY=0;exitDx=0;exitDy=0;" parent="1" source="-RLH_IuoiYfBiZFLVVhZ-66" target="pjJrgI3MQ-hdJMZlSKrB-21" edge="1">
          <mxGeometry x="-0.5" width="160" relative="1" as="geometry">
            <mxPoint x="387.57359312880703" y="628.7867965644035" as="sourcePoint" />
            <mxPoint x="450" y="600" as="targetPoint" />
            <mxPoint as="offset" />
          </mxGeometry>
        </mxCell>
        <mxCell id="-RLH_IuoiYfBiZFLVVhZ-72" value="&amp;lt;&amp;lt;include&amp;gt;&amp;gt;" style="edgeStyle=none;html=1;endArrow=open;verticalAlign=bottom;dashed=1;labelBackgroundColor=none;exitX=1;exitY=0;exitDx=0;exitDy=0;entryX=0;entryY=1;entryDx=0;entryDy=0;" parent="1" source="-RLH_IuoiYfBiZFLVVhZ-66" target="-RLH_IuoiYfBiZFLVVhZ-68" edge="1">
          <mxGeometry x="-0.0659" y="-4" width="160" relative="1" as="geometry">
            <mxPoint x="430" y="620" as="sourcePoint" />
            <mxPoint x="430" y="580" as="targetPoint" />
            <mxPoint as="offset" />
          </mxGeometry>
        </mxCell>
        <mxCell id="-RLH_IuoiYfBiZFLVVhZ-73" value="&amp;lt;&amp;lt;extend&amp;gt;&amp;gt;" style="edgeStyle=none;html=1;startArrow=open;endArrow=none;startSize=12;verticalAlign=bottom;dashed=1;labelBackgroundColor=none;exitX=1;exitY=0;exitDx=0;exitDy=0;entryX=0;entryY=1;entryDx=0;entryDy=0;" parent="1" source="-RLH_IuoiYfBiZFLVVhZ-64" target="-RLH_IuoiYfBiZFLVVhZ-66" edge="1">
          <mxGeometry x="0.035" y="-7" width="160" relative="1" as="geometry">
            <mxPoint x="310" y="670" as="sourcePoint" />
            <mxPoint x="470" y="670" as="targetPoint" />
            <mxPoint as="offset" />
          </mxGeometry>
        </mxCell>
        <mxCell id="-RLH_IuoiYfBiZFLVVhZ-74" value="Ingresar Medios&lt;br&gt;De Contacto" style="shape=ellipse;html=1;strokeWidth=3;fontStyle=1;whiteSpace=wrap;align=center;perimeter=ellipsePerimeter;" parent="1" vertex="1">
          <mxGeometry x="590" y="650" width="120" height="60" as="geometry" />
        </mxCell>
        <mxCell id="-RLH_IuoiYfBiZFLVVhZ-75" value="&amp;lt;&amp;lt;include&amp;gt;&amp;gt;" style="edgeStyle=none;html=1;endArrow=open;verticalAlign=bottom;dashed=1;labelBackgroundColor=none;exitX=1;exitY=0.5;exitDx=0;exitDy=0;entryX=0;entryY=0.5;entryDx=0;entryDy=0;" parent="1" source="-RLH_IuoiYfBiZFLVVhZ-66" target="-RLH_IuoiYfBiZFLVVhZ-74" edge="1">
          <mxGeometry x="-0.0659" y="-4" width="160" relative="1" as="geometry">
            <mxPoint x="519.996406871193" y="769.9967965644037" as="sourcePoint" />
            <mxPoint x="457.57" y="691.21" as="targetPoint" />
            <mxPoint as="offset" />
          </mxGeometry>
        </mxCell>
        <mxCell id="-RLH_IuoiYfBiZFLVVhZ-79" value="Esperar&lt;br&gt;Verificación" style="shape=ellipse;html=1;strokeWidth=3;fontStyle=1;whiteSpace=wrap;align=center;perimeter=ellipsePerimeter;" parent="1" vertex="1">
          <mxGeometry x="413" y="740" width="120" height="60" as="geometry" />
        </mxCell>
        <mxCell id="-RLH_IuoiYfBiZFLVVhZ-80" value="&amp;lt;&amp;lt;extend&amp;gt;&amp;gt;" style="edgeStyle=none;html=1;startArrow=open;endArrow=none;startSize=12;verticalAlign=bottom;dashed=1;labelBackgroundColor=none;exitX=1;exitY=0.5;exitDx=0;exitDy=0;entryX=0;entryY=0.5;entryDx=0;entryDy=0;" parent="1" source="-RLH_IuoiYfBiZFLVVhZ-64" target="-RLH_IuoiYfBiZFLVVhZ-79" edge="1">
          <mxGeometry x="0.0588" y="-10" width="160" relative="1" as="geometry">
            <mxPoint x="322.8443703486746" y="808.9978576722183" as="sourcePoint" />
            <mxPoint x="470" y="750" as="targetPoint" />
            <mxPoint as="offset" />
          </mxGeometry>
        </mxCell>
        <mxCell id="-RLH_IuoiYfBiZFLVVhZ-81" value="Adjuntar&lt;br&gt;Documentos&lt;br&gt;Legales" style="shape=ellipse;html=1;strokeWidth=3;fontStyle=1;whiteSpace=wrap;align=center;perimeter=ellipsePerimeter;" parent="1" vertex="1">
          <mxGeometry x="413" y="850" width="120" height="60" as="geometry" />
        </mxCell>
        <mxCell id="-RLH_IuoiYfBiZFLVVhZ-83" value="Esperar&lt;br&gt;Visita&lt;br&gt;Al Lugar" style="shape=ellipse;html=1;strokeWidth=3;fontStyle=1;whiteSpace=wrap;align=center;perimeter=ellipsePerimeter;" parent="1" vertex="1">
          <mxGeometry x="570" y="810" width="120" height="60" as="geometry" />
        </mxCell>
        <mxCell id="-RLH_IuoiYfBiZFLVVhZ-85" value="Proceso de realizar pedido" style="shape=rect;html=1;verticalAlign=top;fontStyle=1;whiteSpace=wrap;align=center;" parent="1" vertex="1">
          <mxGeometry x="1851" y="110" width="530" height="400" as="geometry" />
        </mxCell>
        <mxCell id="-RLH_IuoiYfBiZFLVVhZ-86" value="Cliente" style="shape=umlActor;html=1;verticalLabelPosition=bottom;verticalAlign=top;align=center;" parent="1" vertex="1">
          <mxGeometry x="1771" y="270" width="30" height="60" as="geometry" />
        </mxCell>
        <mxCell id="-RLH_IuoiYfBiZFLVVhZ-87" value="Realizar Pedido" style="shape=ellipse;html=1;strokeWidth=3;fontStyle=1;whiteSpace=wrap;align=center;perimeter=ellipsePerimeter;" parent="1" vertex="1">
          <mxGeometry x="1871" y="240" width="120" height="60" as="geometry" />
        </mxCell>
        <mxCell id="-RLH_IuoiYfBiZFLVVhZ-88" value="" style="edgeStyle=none;html=1;endArrow=none;verticalAlign=bottom;exitX=0.5;exitY=0.5;exitDx=0;exitDy=0;exitPerimeter=0;entryX=0;entryY=0.5;entryDx=0;entryDy=0;" parent="1" source="-RLH_IuoiYfBiZFLVVhZ-86" target="-RLH_IuoiYfBiZFLVVhZ-87" edge="1">
          <mxGeometry width="160" relative="1" as="geometry">
            <mxPoint x="1991" y="420" as="sourcePoint" />
            <mxPoint x="2151" y="420" as="targetPoint" />
          </mxGeometry>
        </mxCell>
        <mxCell id="-RLH_IuoiYfBiZFLVVhZ-90" value="Elegir Productos" style="shape=ellipse;html=1;strokeWidth=3;fontStyle=1;whiteSpace=wrap;align=center;perimeter=ellipsePerimeter;" parent="1" vertex="1">
          <mxGeometry x="2056" y="170" width="120" height="60" as="geometry" />
        </mxCell>
        <mxCell id="-RLH_IuoiYfBiZFLVVhZ-91" value="Ingresar &lt;br&gt;Cantidades" style="shape=ellipse;html=1;strokeWidth=3;fontStyle=1;whiteSpace=wrap;align=center;perimeter=ellipsePerimeter;" parent="1" vertex="1">
          <mxGeometry x="1871" y="140" width="120" height="60" as="geometry" />
        </mxCell>
        <mxCell id="-RLH_IuoiYfBiZFLVVhZ-93" value="&amp;lt;&amp;lt;extend&amp;gt;&amp;gt;" style="edgeStyle=none;html=1;startArrow=open;endArrow=none;startSize=12;verticalAlign=bottom;dashed=1;labelBackgroundColor=none;entryX=0;entryY=1;entryDx=0;entryDy=0;exitX=1;exitY=0;exitDx=0;exitDy=0;" parent="1" source="-RLH_IuoiYfBiZFLVVhZ-87" target="-RLH_IuoiYfBiZFLVVhZ-90" edge="1">
          <mxGeometry x="0.1058" y="-11" width="160" relative="1" as="geometry">
            <mxPoint x="1851" y="300" as="sourcePoint" />
            <mxPoint x="2011" y="300" as="targetPoint" />
            <mxPoint as="offset" />
          </mxGeometry>
        </mxCell>
        <mxCell id="-RLH_IuoiYfBiZFLVVhZ-94" value="&amp;lt;&amp;lt;include&amp;gt;&amp;gt;" style="edgeStyle=none;html=1;endArrow=open;verticalAlign=bottom;dashed=1;labelBackgroundColor=none;entryX=1;entryY=0.5;entryDx=0;entryDy=0;exitX=0;exitY=0.5;exitDx=0;exitDy=0;" parent="1" source="-RLH_IuoiYfBiZFLVVhZ-90" target="-RLH_IuoiYfBiZFLVVhZ-91" edge="1">
          <mxGeometry x="-0.2515" y="6" width="160" relative="1" as="geometry">
            <mxPoint x="1851" y="180" as="sourcePoint" />
            <mxPoint x="2011" y="180" as="targetPoint" />
            <mxPoint as="offset" />
          </mxGeometry>
        </mxCell>
        <mxCell id="-RLH_IuoiYfBiZFLVVhZ-95" value="&amp;lt;&amp;lt;extend&amp;gt;&amp;gt;" style="edgeStyle=none;html=1;startArrow=open;endArrow=none;startSize=12;verticalAlign=bottom;dashed=1;labelBackgroundColor=none;exitX=1;exitY=0.5;exitDx=0;exitDy=0;entryX=0;entryY=0.5;entryDx=0;entryDy=0;" parent="1" source="-RLH_IuoiYfBiZFLVVhZ-87" target="-RLH_IuoiYfBiZFLVVhZ-96" edge="1">
          <mxGeometry x="0.12" y="-9" width="160" relative="1" as="geometry">
            <mxPoint x="1851" y="180" as="sourcePoint" />
            <mxPoint x="2011" y="180" as="targetPoint" />
            <mxPoint as="offset" />
          </mxGeometry>
        </mxCell>
        <mxCell id="-RLH_IuoiYfBiZFLVVhZ-96" value="Seleccionar&lt;br&gt;Medio de Pago" style="shape=ellipse;html=1;strokeWidth=3;fontStyle=1;whiteSpace=wrap;align=center;perimeter=ellipsePerimeter;" parent="1" vertex="1">
          <mxGeometry x="2076" y="260" width="120" height="60" as="geometry" />
        </mxCell>
        <mxCell id="-RLH_IuoiYfBiZFLVVhZ-97" value="Ingresar Datos&lt;br&gt;Medio de Pago" style="shape=ellipse;html=1;strokeWidth=3;fontStyle=1;whiteSpace=wrap;align=center;perimeter=ellipsePerimeter;" parent="1" vertex="1">
          <mxGeometry x="2233.5" y="210" width="120" height="60" as="geometry" />
        </mxCell>
        <mxCell id="-RLH_IuoiYfBiZFLVVhZ-98" value="&amp;lt;&amp;lt;include&amp;gt;&amp;gt;" style="edgeStyle=none;html=1;endArrow=open;verticalAlign=bottom;dashed=1;labelBackgroundColor=none;exitX=1;exitY=0;exitDx=0;exitDy=0;entryX=0;entryY=0.5;entryDx=0;entryDy=0;" parent="1" source="-RLH_IuoiYfBiZFLVVhZ-96" target="-RLH_IuoiYfBiZFLVVhZ-97" edge="1">
          <mxGeometry x="-0.1844" y="-14" width="160" relative="1" as="geometry">
            <mxPoint x="1951" y="290" as="sourcePoint" />
            <mxPoint x="2241" y="250" as="targetPoint" />
            <mxPoint as="offset" />
          </mxGeometry>
        </mxCell>
        <mxCell id="-RLH_IuoiYfBiZFLVVhZ-99" value="Tipos de medio de pago:&#xa;Efetivo, Tarjeta (Crédito, Débito), &#xa;Transferencia electrónica, Cupones.&#xa;(Aclarar que dependen del restaurante)" style="shape=note;size=15;spacingLeft=5;align=left;whiteSpace=wrap;" parent="1" vertex="1">
          <mxGeometry x="2141" y="340" width="230" height="60" as="geometry" />
        </mxCell>
        <mxCell id="-RLH_IuoiYfBiZFLVVhZ-101" value="" style="edgeStyle=none;html=1;endArrow=none;rounded=0;labelBackgroundColor=none;dashed=1;exitX=0;exitY=0;entryX=1;entryY=1;entryDx=0;entryDy=0;exitDx=107.5;exitDy=0;exitPerimeter=0;" parent="1" source="-RLH_IuoiYfBiZFLVVhZ-99" target="-RLH_IuoiYfBiZFLVVhZ-96" edge="1">
          <mxGeometry relative="1" as="geometry">
            <mxPoint x="2001" y="330" as="targetPoint" />
          </mxGeometry>
        </mxCell>
        <mxCell id="-RLH_IuoiYfBiZFLVVhZ-102" value="Ingresar&lt;br&gt;Observaciones De&lt;br&gt;Personalización" style="shape=ellipse;html=1;strokeWidth=3;fontStyle=1;whiteSpace=wrap;align=center;perimeter=ellipsePerimeter;" parent="1" vertex="1">
          <mxGeometry x="2231" y="130" width="120" height="60" as="geometry" />
        </mxCell>
        <mxCell id="-RLH_IuoiYfBiZFLVVhZ-104" value="Seleccionar Tipo&lt;br&gt;Pedido" style="shape=ellipse;html=1;strokeWidth=3;fontStyle=1;whiteSpace=wrap;align=center;perimeter=ellipsePerimeter;" parent="1" vertex="1">
          <mxGeometry x="1991" y="340" width="120" height="60" as="geometry" />
        </mxCell>
        <mxCell id="-RLH_IuoiYfBiZFLVVhZ-108" value="Tipos de Pedidos:&#xa;Presencial, A domicilio, Para llevar.&#xa;(También depende del restaurante)" style="shape=note;size=15;spacingLeft=5;align=left;whiteSpace=wrap;" parent="1" vertex="1">
          <mxGeometry x="1861" y="450" width="200" height="50" as="geometry" />
        </mxCell>
        <mxCell id="-RLH_IuoiYfBiZFLVVhZ-110" value="" style="edgeStyle=none;html=1;endArrow=none;rounded=0;labelBackgroundColor=none;dashed=1;exitX=0.5;exitY=0;exitDx=0;exitDy=0;exitPerimeter=0;entryX=0;entryY=1;entryDx=0;entryDy=0;" parent="1" source="-RLH_IuoiYfBiZFLVVhZ-108" target="-RLH_IuoiYfBiZFLVVhZ-104" edge="1">
          <mxGeometry relative="1" as="geometry">
            <mxPoint x="2141" y="400" as="targetPoint" />
          </mxGeometry>
        </mxCell>
        <mxCell id="-RLH_IuoiYfBiZFLVVhZ-111" value="&amp;lt;&amp;lt;include&amp;gt;&amp;gt;" style="edgeStyle=none;html=1;endArrow=open;verticalAlign=bottom;dashed=1;labelBackgroundColor=none;entryX=0;entryY=0.5;entryDx=0;entryDy=0;exitX=1;exitY=0.5;exitDx=0;exitDy=0;" parent="1" source="-RLH_IuoiYfBiZFLVVhZ-90" target="-RLH_IuoiYfBiZFLVVhZ-102" edge="1">
          <mxGeometry x="0.0054" y="-12" width="160" relative="1" as="geometry">
            <mxPoint x="2066" y="210" as="sourcePoint" />
            <mxPoint x="2011" y="180" as="targetPoint" />
            <mxPoint as="offset" />
          </mxGeometry>
        </mxCell>
        <mxCell id="-RLH_IuoiYfBiZFLVVhZ-112" value="Verificación por código enviando mensaje de texto" style="shape=note;size=15;spacingLeft=5;align=left;whiteSpace=wrap;" parent="1" vertex="1">
          <mxGeometry x="600" y="390" width="120" height="45" as="geometry" />
        </mxCell>
        <mxCell id="-RLH_IuoiYfBiZFLVVhZ-114" value="" style="edgeStyle=none;html=1;endArrow=none;rounded=0;labelBackgroundColor=none;dashed=1;exitX=0.5;exitY=0;entryX=0.5;entryY=1;entryDx=0;entryDy=0;exitDx=0;exitDy=0;exitPerimeter=0;" parent="1" source="-RLH_IuoiYfBiZFLVVhZ-112" target="-RLH_IuoiYfBiZFLVVhZ-60" edge="1">
          <mxGeometry relative="1" as="geometry">
            <mxPoint x="700" y="380" as="targetPoint" />
          </mxGeometry>
        </mxCell>
        <mxCell id="-RLH_IuoiYfBiZFLVVhZ-115" value="Ingresar&lt;br&gt;Dirección" style="shape=ellipse;html=1;strokeWidth=3;fontStyle=1;whiteSpace=wrap;align=center;perimeter=ellipsePerimeter;" parent="1" vertex="1">
          <mxGeometry x="2081" y="440" width="120" height="60" as="geometry" />
        </mxCell>
        <mxCell id="-RLH_IuoiYfBiZFLVVhZ-116" value="&amp;lt;&amp;lt;include&amp;gt;&amp;gt;" style="edgeStyle=none;html=1;endArrow=open;verticalAlign=bottom;dashed=1;labelBackgroundColor=none;entryX=0;entryY=0;entryDx=0;entryDy=0;exitX=0.5;exitY=1;exitDx=0;exitDy=0;" parent="1" source="-RLH_IuoiYfBiZFLVVhZ-104" target="-RLH_IuoiYfBiZFLVVhZ-115" edge="1">
          <mxGeometry x="0.1196" y="-5" width="160" relative="1" as="geometry">
            <mxPoint x="1891" y="340" as="sourcePoint" />
            <mxPoint x="2051" y="340" as="targetPoint" />
            <mxPoint as="offset" />
          </mxGeometry>
        </mxCell>
        <mxCell id="-RLH_IuoiYfBiZFLVVhZ-117" value="Solo si elige &#xa;&quot;A Domicilio&quot;" style="shape=note;size=15;spacingLeft=5;align=left;whiteSpace=wrap;" parent="1" vertex="1">
          <mxGeometry x="2246" y="445" width="95" height="50" as="geometry" />
        </mxCell>
        <mxCell id="-RLH_IuoiYfBiZFLVVhZ-119" value="" style="edgeStyle=none;html=1;endArrow=none;rounded=0;labelBackgroundColor=none;dashed=1;entryX=0;entryY=0.5;entryDx=0;entryDy=0;entryPerimeter=0;exitX=1;exitY=0.5;exitDx=0;exitDy=0;" parent="1" source="-RLH_IuoiYfBiZFLVVhZ-115" target="-RLH_IuoiYfBiZFLVVhZ-117" edge="1">
          <mxGeometry relative="1" as="geometry">
            <mxPoint x="2036.1556296513254" y="401.00214232778217" as="targetPoint" />
            <mxPoint x="2201" y="475" as="sourcePoint" />
          </mxGeometry>
        </mxCell>
        <mxCell id="-RLH_IuoiYfBiZFLVVhZ-105" value="&amp;lt;&amp;lt;extend&amp;gt;&amp;gt;" style="edgeStyle=none;startArrow=open;endArrow=none;startSize=12;verticalAlign=middle;dashed=1;labelBackgroundColor=none;exitX=1;exitY=1;exitDx=0;exitDy=0;entryX=0;entryY=0;entryDx=0;entryDy=0;backgroundOutline=0;metaEdit=0;shadow=0;sketch=0;labelBorderColor=none;horizontal=1;labelPosition=center;verticalLabelPosition=middle;align=center;html=1;" parent="1" source="-RLH_IuoiYfBiZFLVVhZ-87" target="-RLH_IuoiYfBiZFLVVhZ-104" edge="1">
          <mxGeometry width="160" relative="1" as="geometry">
            <mxPoint x="2081" y="360" as="sourcePoint" />
            <mxPoint x="2241" y="360" as="targetPoint" />
            <mxPoint as="offset" />
          </mxGeometry>
        </mxCell>
        <mxCell id="pjJrgI3MQ-hdJMZlSKrB-2" value="&amp;lt;&amp;lt;include&amp;gt;&amp;gt;" style="edgeStyle=none;html=1;endArrow=open;verticalAlign=bottom;dashed=1;labelBackgroundColor=none;exitX=0.5;exitY=1;exitDx=0;exitDy=0;entryX=0.5;entryY=0;entryDx=0;entryDy=0;" edge="1" parent="1" source="-RLH_IuoiYfBiZFLVVhZ-79" target="-RLH_IuoiYfBiZFLVVhZ-81">
          <mxGeometry width="160" relative="1" as="geometry">
            <mxPoint x="570" y="690" as="sourcePoint" />
            <mxPoint x="730" y="690" as="targetPoint" />
          </mxGeometry>
        </mxCell>
        <mxCell id="pjJrgI3MQ-hdJMZlSKrB-3" value="&amp;lt;&amp;lt;include&amp;gt;&amp;gt;" style="edgeStyle=none;html=1;endArrow=open;verticalAlign=bottom;dashed=1;labelBackgroundColor=none;exitX=1;exitY=0.5;exitDx=0;exitDy=0;entryX=0;entryY=0;entryDx=0;entryDy=0;" edge="1" parent="1" source="-RLH_IuoiYfBiZFLVVhZ-79" target="-RLH_IuoiYfBiZFLVVhZ-83">
          <mxGeometry width="160" relative="1" as="geometry">
            <mxPoint x="482.9999999999998" y="810" as="sourcePoint" />
            <mxPoint x="482.9999999999998" y="860" as="targetPoint" />
          </mxGeometry>
        </mxCell>
        <mxCell id="pjJrgI3MQ-hdJMZlSKrB-4" value="Registro en la aplicación" style="shape=rect;html=1;verticalAlign=top;fontStyle=1;whiteSpace=wrap;align=center;" vertex="1" parent="1">
          <mxGeometry x="200" y="970" width="530" height="340" as="geometry" />
        </mxCell>
        <mxCell id="pjJrgI3MQ-hdJMZlSKrB-5" value="Empleado&lt;br&gt;Potencial" style="shape=umlActor;html=1;verticalLabelPosition=bottom;verticalAlign=top;align=center;" vertex="1" parent="1">
          <mxGeometry x="120" y="1110" width="30" height="60" as="geometry" />
        </mxCell>
        <mxCell id="pjJrgI3MQ-hdJMZlSKrB-6" value="Registrarse Como&lt;br&gt;Trabajador" style="shape=ellipse;html=1;strokeWidth=3;fontStyle=1;whiteSpace=wrap;align=center;perimeter=ellipsePerimeter;" vertex="1" parent="1">
          <mxGeometry x="220" y="1210" width="120" height="60" as="geometry" />
        </mxCell>
        <mxCell id="pjJrgI3MQ-hdJMZlSKrB-7" value="" style="edgeStyle=none;html=1;endArrow=none;verticalAlign=bottom;exitX=0;exitY=0;exitDx=0;exitDy=0;entryX=0.5;entryY=0.5;entryDx=0;entryDy=0;entryPerimeter=0;" edge="1" parent="1" source="pjJrgI3MQ-hdJMZlSKrB-6" target="pjJrgI3MQ-hdJMZlSKrB-5">
          <mxGeometry width="160" relative="1" as="geometry">
            <mxPoint x="310" y="1160" as="sourcePoint" />
            <mxPoint x="470" y="1160" as="targetPoint" />
          </mxGeometry>
        </mxCell>
        <mxCell id="pjJrgI3MQ-hdJMZlSKrB-8" value="Ingresar Datos" style="shape=ellipse;html=1;strokeWidth=3;fontStyle=1;whiteSpace=wrap;align=center;perimeter=ellipsePerimeter;" vertex="1" parent="1">
          <mxGeometry x="390" y="1140" width="120" height="60" as="geometry" />
        </mxCell>
        <mxCell id="pjJrgI3MQ-hdJMZlSKrB-9" value="Obtener Información&lt;br&gt;Como Cliente" style="shape=ellipse;html=1;strokeWidth=3;fontStyle=1;whiteSpace=wrap;align=center;perimeter=ellipsePerimeter;" vertex="1" parent="1">
          <mxGeometry x="240" y="1030" width="120" height="60" as="geometry" />
        </mxCell>
        <mxCell id="pjJrgI3MQ-hdJMZlSKrB-10" value="Adjuntar&lt;br&gt;Hoja de Vida" style="shape=ellipse;html=1;strokeWidth=3;fontStyle=1;whiteSpace=wrap;align=center;perimeter=ellipsePerimeter;" vertex="1" parent="1">
          <mxGeometry x="540" y="1030" width="120" height="60" as="geometry" />
        </mxCell>
        <mxCell id="pjJrgI3MQ-hdJMZlSKrB-11" value="Ingresar&lt;br&gt;Información" style="shape=ellipse;html=1;strokeWidth=3;fontStyle=1;whiteSpace=wrap;align=center;perimeter=ellipsePerimeter;" vertex="1" parent="1">
          <mxGeometry x="390" y="1030" width="120" height="60" as="geometry" />
        </mxCell>
        <mxCell id="pjJrgI3MQ-hdJMZlSKrB-12" value="&amp;lt;&amp;lt;include&amp;gt;&amp;gt;" style="edgeStyle=none;html=1;endArrow=open;verticalAlign=bottom;dashed=1;labelBackgroundColor=none;entryX=0.5;entryY=1;entryDx=0;entryDy=0;exitX=0;exitY=0;exitDx=0;exitDy=0;" edge="1" parent="1" source="pjJrgI3MQ-hdJMZlSKrB-8" target="pjJrgI3MQ-hdJMZlSKrB-9">
          <mxGeometry x="-0.0659" y="4" width="160" relative="1" as="geometry">
            <mxPoint x="310" y="1160" as="sourcePoint" />
            <mxPoint x="470" y="1160" as="targetPoint" />
            <mxPoint as="offset" />
          </mxGeometry>
        </mxCell>
        <mxCell id="pjJrgI3MQ-hdJMZlSKrB-13" value="&amp;lt;&amp;lt;include&amp;gt;&amp;gt;" style="edgeStyle=none;html=1;endArrow=open;verticalAlign=bottom;dashed=1;labelBackgroundColor=none;entryX=0.5;entryY=1;entryDx=0;entryDy=0;exitX=0.5;exitY=0;exitDx=0;exitDy=0;" edge="1" parent="1" source="pjJrgI3MQ-hdJMZlSKrB-8" target="pjJrgI3MQ-hdJMZlSKrB-11">
          <mxGeometry x="-0.5" width="160" relative="1" as="geometry">
            <mxPoint x="387.57359312880703" y="1118.7867965644036" as="sourcePoint" />
            <mxPoint x="290" y="1070" as="targetPoint" />
            <mxPoint as="offset" />
          </mxGeometry>
        </mxCell>
        <mxCell id="pjJrgI3MQ-hdJMZlSKrB-14" value="&amp;lt;&amp;lt;include&amp;gt;&amp;gt;" style="edgeStyle=none;html=1;endArrow=open;verticalAlign=bottom;dashed=1;labelBackgroundColor=none;exitX=1;exitY=0;exitDx=0;exitDy=0;entryX=0.5;entryY=1;entryDx=0;entryDy=0;" edge="1" parent="1" source="pjJrgI3MQ-hdJMZlSKrB-8" target="pjJrgI3MQ-hdJMZlSKrB-10">
          <mxGeometry x="-0.0659" y="-4" width="160" relative="1" as="geometry">
            <mxPoint x="430" y="1110" as="sourcePoint" />
            <mxPoint x="430" y="1070" as="targetPoint" />
            <mxPoint as="offset" />
          </mxGeometry>
        </mxCell>
        <mxCell id="pjJrgI3MQ-hdJMZlSKrB-15" value="&amp;lt;&amp;lt;extend&amp;gt;&amp;gt;" style="edgeStyle=none;html=1;startArrow=open;endArrow=none;startSize=12;verticalAlign=bottom;dashed=1;labelBackgroundColor=none;exitX=1;exitY=0;exitDx=0;exitDy=0;entryX=0;entryY=1;entryDx=0;entryDy=0;" edge="1" parent="1" source="pjJrgI3MQ-hdJMZlSKrB-6" target="pjJrgI3MQ-hdJMZlSKrB-8">
          <mxGeometry x="0.035" y="-7" width="160" relative="1" as="geometry">
            <mxPoint x="310" y="1160" as="sourcePoint" />
            <mxPoint x="470" y="1160" as="targetPoint" />
            <mxPoint as="offset" />
          </mxGeometry>
        </mxCell>
        <mxCell id="pjJrgI3MQ-hdJMZlSKrB-16" value="Ingresar Medios&lt;br&gt;De Contacto" style="shape=ellipse;html=1;strokeWidth=3;fontStyle=1;whiteSpace=wrap;align=center;perimeter=ellipsePerimeter;" vertex="1" parent="1">
          <mxGeometry x="590" y="1140" width="120" height="60" as="geometry" />
        </mxCell>
        <mxCell id="pjJrgI3MQ-hdJMZlSKrB-17" value="&amp;lt;&amp;lt;include&amp;gt;&amp;gt;" style="edgeStyle=none;html=1;endArrow=open;verticalAlign=bottom;dashed=1;labelBackgroundColor=none;exitX=1;exitY=0.5;exitDx=0;exitDy=0;entryX=0;entryY=0.5;entryDx=0;entryDy=0;" edge="1" parent="1" source="pjJrgI3MQ-hdJMZlSKrB-8" target="pjJrgI3MQ-hdJMZlSKrB-16">
          <mxGeometry x="-0.0659" y="-4" width="160" relative="1" as="geometry">
            <mxPoint x="519.996406871193" y="1259.9967965644037" as="sourcePoint" />
            <mxPoint x="457.57" y="1181.21" as="targetPoint" />
            <mxPoint as="offset" />
          </mxGeometry>
        </mxCell>
        <mxCell id="pjJrgI3MQ-hdJMZlSKrB-21" value="Ingresar &lt;br&gt;Nombre&lt;br&gt;Negocio" style="shape=ellipse;html=1;strokeWidth=3;fontStyle=1;whiteSpace=wrap;align=center;perimeter=ellipsePerimeter;" vertex="1" parent="1">
          <mxGeometry x="390" y="540" width="120" height="60" as="geometry" />
        </mxCell>
        <mxCell id="pjJrgI3MQ-hdJMZlSKrB-22" value="Proceso de pedidos anticipados" style="shape=rect;html=1;verticalAlign=top;fontStyle=1;whiteSpace=wrap;align=center;" vertex="1" parent="1">
          <mxGeometry x="1851" y="910" width="530" height="340" as="geometry" />
        </mxCell>
        <mxCell id="pjJrgI3MQ-hdJMZlSKrB-23" value="Encargado&lt;br&gt;Pedidos" style="shape=umlActor;html=1;verticalLabelPosition=bottom;verticalAlign=top;align=center;" vertex="1" parent="1">
          <mxGeometry x="1771" y="1030" width="30" height="60" as="geometry" />
        </mxCell>
        <mxCell id="pjJrgI3MQ-hdJMZlSKrB-24" value="Despachar&lt;br&gt;Pedido" style="shape=ellipse;html=1;strokeWidth=3;fontStyle=1;whiteSpace=wrap;align=center;perimeter=ellipsePerimeter;" vertex="1" parent="1">
          <mxGeometry x="1871" y="1120" width="120" height="60" as="geometry" />
        </mxCell>
        <mxCell id="pjJrgI3MQ-hdJMZlSKrB-25" value="" style="edgeStyle=none;html=1;endArrow=none;verticalAlign=bottom;exitX=0;exitY=0;exitDx=0;exitDy=0;entryX=0.5;entryY=0.5;entryDx=0;entryDy=0;entryPerimeter=0;" edge="1" parent="1" source="pjJrgI3MQ-hdJMZlSKrB-24" target="pjJrgI3MQ-hdJMZlSKrB-23">
          <mxGeometry width="160" relative="1" as="geometry">
            <mxPoint x="1961" y="1100" as="sourcePoint" />
            <mxPoint x="2121" y="1100" as="targetPoint" />
          </mxGeometry>
        </mxCell>
        <mxCell id="pjJrgI3MQ-hdJMZlSKrB-26" value="Consultar&lt;br&gt;Procedencia" style="shape=ellipse;html=1;strokeWidth=3;fontStyle=1;whiteSpace=wrap;align=center;perimeter=ellipsePerimeter;" vertex="1" parent="1">
          <mxGeometry x="2196" y="1040" width="120" height="60" as="geometry" />
        </mxCell>
        <mxCell id="pjJrgI3MQ-hdJMZlSKrB-27" value="Consultar &lt;br&gt;Nombre Cliente" style="shape=ellipse;html=1;strokeWidth=3;fontStyle=1;whiteSpace=wrap;align=center;perimeter=ellipsePerimeter;" vertex="1" parent="1">
          <mxGeometry x="2111" y="950" width="120" height="60" as="geometry" />
        </mxCell>
        <mxCell id="pjJrgI3MQ-hdJMZlSKrB-29" value="&amp;lt;&amp;lt;include&amp;gt;&amp;gt;" style="edgeStyle=none;html=1;endArrow=open;verticalAlign=bottom;dashed=1;labelBackgroundColor=none;entryX=0.5;entryY=1;entryDx=0;entryDy=0;exitX=0;exitY=0;exitDx=0;exitDy=0;" edge="1" parent="1" source="pjJrgI3MQ-hdJMZlSKrB-26" target="pjJrgI3MQ-hdJMZlSKrB-27">
          <mxGeometry x="-0.0659" y="4" width="160" relative="1" as="geometry">
            <mxPoint x="1961" y="1100" as="sourcePoint" />
            <mxPoint x="2121" y="1100" as="targetPoint" />
            <mxPoint as="offset" />
          </mxGeometry>
        </mxCell>
        <mxCell id="pjJrgI3MQ-hdJMZlSKrB-31" value="&amp;lt;&amp;lt;extend&amp;gt;&amp;gt;" style="edgeStyle=none;html=1;startArrow=open;endArrow=none;startSize=12;verticalAlign=bottom;dashed=1;labelBackgroundColor=none;exitX=1;exitY=0.5;exitDx=0;exitDy=0;entryX=0;entryY=0.5;entryDx=0;entryDy=0;" edge="1" parent="1" source="pjJrgI3MQ-hdJMZlSKrB-36" target="pjJrgI3MQ-hdJMZlSKrB-26">
          <mxGeometry x="0.0551" y="-19" width="160" relative="1" as="geometry">
            <mxPoint x="1961" y="1100" as="sourcePoint" />
            <mxPoint x="2121" y="1100" as="targetPoint" />
            <mxPoint as="offset" />
          </mxGeometry>
        </mxCell>
        <mxCell id="pjJrgI3MQ-hdJMZlSKrB-36" value="Detectar Pedido" style="shape=ellipse;html=1;strokeWidth=3;fontStyle=1;whiteSpace=wrap;align=center;perimeter=ellipsePerimeter;" vertex="1" parent="1">
          <mxGeometry x="1991" y="1040" width="120" height="60" as="geometry" />
        </mxCell>
        <mxCell id="pjJrgI3MQ-hdJMZlSKrB-37" value="&amp;lt;&amp;lt;extend&amp;gt;&amp;gt;" style="edgeStyle=none;html=1;startArrow=open;endArrow=none;startSize=12;verticalAlign=bottom;dashed=1;labelBackgroundColor=none;exitX=1;exitY=0;exitDx=0;exitDy=0;entryX=0;entryY=1;entryDx=0;entryDy=0;" edge="1" parent="1" source="pjJrgI3MQ-hdJMZlSKrB-24" target="pjJrgI3MQ-hdJMZlSKrB-36">
          <mxGeometry x="-0.0281" y="-14" width="160" relative="1" as="geometry">
            <mxPoint x="1861" y="1050" as="sourcePoint" />
            <mxPoint x="2021" y="1050" as="targetPoint" />
            <mxPoint as="offset" />
          </mxGeometry>
        </mxCell>
        <mxCell id="pjJrgI3MQ-hdJMZlSKrB-38" value="Consultar&lt;br&gt;Productos" style="shape=ellipse;html=1;strokeWidth=3;fontStyle=1;whiteSpace=wrap;align=center;perimeter=ellipsePerimeter;" vertex="1" parent="1">
          <mxGeometry x="1871" y="950" width="120" height="60" as="geometry" />
        </mxCell>
        <mxCell id="pjJrgI3MQ-hdJMZlSKrB-39" value="&amp;lt;&amp;lt;extend&amp;gt;&amp;gt;" style="edgeStyle=none;html=1;startArrow=open;endArrow=none;startSize=12;verticalAlign=bottom;dashed=1;labelBackgroundColor=none;entryX=1;entryY=1;entryDx=0;entryDy=0;exitX=0;exitY=0;exitDx=0;exitDy=0;" edge="1" parent="1" source="pjJrgI3MQ-hdJMZlSKrB-36" target="pjJrgI3MQ-hdJMZlSKrB-38">
          <mxGeometry x="-0.2899" y="7" width="160" relative="1" as="geometry">
            <mxPoint x="1951" y="1050" as="sourcePoint" />
            <mxPoint x="2111" y="1050" as="targetPoint" />
            <mxPoint y="-1" as="offset" />
          </mxGeometry>
        </mxCell>
        <mxCell id="pjJrgI3MQ-hdJMZlSKrB-40" value="Informar&lt;br&gt;Cocinero" style="shape=ellipse;html=1;strokeWidth=3;fontStyle=1;whiteSpace=wrap;align=center;perimeter=ellipsePerimeter;" vertex="1" parent="1">
          <mxGeometry x="2001" y="810" width="120" height="60" as="geometry" />
        </mxCell>
        <mxCell id="pjJrgI3MQ-hdJMZlSKrB-41" value="&amp;lt;&amp;lt;extend&amp;gt;&amp;gt;" style="edgeStyle=none;html=1;startArrow=open;endArrow=none;startSize=12;verticalAlign=bottom;dashed=1;labelBackgroundColor=none;exitX=0.5;exitY=1;exitDx=0;exitDy=0;entryX=0;entryY=0.5;entryDx=0;entryDy=0;" edge="1" parent="1" target="pjJrgI3MQ-hdJMZlSKrB-40" source="-RLH_IuoiYfBiZFLVVhZ-4">
          <mxGeometry x="0.1705" y="-11" width="160" relative="1" as="geometry">
            <mxPoint x="1880.9999999999786" y="840" as="sourcePoint" />
            <mxPoint x="2011" y="790" as="targetPoint" />
            <mxPoint x="1" as="offset" />
          </mxGeometry>
        </mxCell>
        <mxCell id="pjJrgI3MQ-hdJMZlSKrB-42" value="Elegir&lt;br&gt;Mesero" style="shape=ellipse;html=1;strokeWidth=3;fontStyle=1;whiteSpace=wrap;align=center;perimeter=ellipsePerimeter;" vertex="1" parent="1">
          <mxGeometry x="2111" y="1120" width="120" height="60" as="geometry" />
        </mxCell>
        <mxCell id="pjJrgI3MQ-hdJMZlSKrB-43" value="&amp;lt;&amp;lt;extend&amp;gt;&amp;gt;" style="edgeStyle=none;html=1;startArrow=open;endArrow=none;startSize=12;verticalAlign=bottom;dashed=1;labelBackgroundColor=none;exitX=1;exitY=0.5;exitDx=0;exitDy=0;entryX=0;entryY=0.5;entryDx=0;entryDy=0;" edge="1" parent="1" target="pjJrgI3MQ-hdJMZlSKrB-42" source="pjJrgI3MQ-hdJMZlSKrB-24">
          <mxGeometry x="0.1111" y="-20" width="160" relative="1" as="geometry">
            <mxPoint x="1991" y="1170" as="sourcePoint" />
            <mxPoint x="2071" y="1150" as="targetPoint" />
            <mxPoint x="1" as="offset" />
          </mxGeometry>
        </mxCell>
        <mxCell id="pjJrgI3MQ-hdJMZlSKrB-44" value="Informar&lt;br&gt;Cocinero" style="shape=ellipse;html=1;strokeWidth=3;fontStyle=1;whiteSpace=wrap;align=center;perimeter=ellipsePerimeter;" vertex="1" parent="1">
          <mxGeometry x="1991" y="1180" width="120" height="60" as="geometry" />
        </mxCell>
        <mxCell id="pjJrgI3MQ-hdJMZlSKrB-45" value="&amp;lt;&amp;lt;extend&amp;gt;&amp;gt;" style="edgeStyle=none;html=1;startArrow=open;endArrow=none;startSize=12;verticalAlign=bottom;dashed=1;labelBackgroundColor=none;entryX=0;entryY=0.5;entryDx=0;entryDy=0;exitX=0.5;exitY=1;exitDx=0;exitDy=0;" edge="1" parent="1" target="pjJrgI3MQ-hdJMZlSKrB-44" source="pjJrgI3MQ-hdJMZlSKrB-24">
          <mxGeometry x="0.1111" y="-20" width="160" relative="1" as="geometry">
            <mxPoint x="1919" y="1180" as="sourcePoint" />
            <mxPoint x="2011" y="1160" as="targetPoint" />
            <mxPoint x="1" as="offset" />
          </mxGeometry>
        </mxCell>
      </root>
    </mxGraphModel>
  </diagram>
</mxfile>
